<?xml version="1.0" encoding="utf-8"?>
<!-- Generator: Adobe Illustrator 25.1.0, SVG Export Plug-In . SVG Version: 6.00 Build 0)  -->
<svg version="1.1" id="Layer_1" xmlns="http://www.w3.org/2000/svg" xmlns:xlink="http://www.w3.org/1999/xlink" x="0px" y="0px"
	 viewBox="0 0 65.2 60.4" style="enable-background:new 0 0 65.2 60.4;" xml:space="preserve">
<style type="text/css">
	.st0{fill:#011627;}
	.st1{fill:#011627;stroke:#011627;stroke-miterlimit:10;}
	.st2{fill:none;stroke:#011627;stroke-width:2;stroke-miterlimit:10;}
</style>
<g>
	<g>
		<path class="st0" d="M8.4,38.9c-0.1,0-0.2,0-0.2-0.1c-0.1-0.1-0.1-0.1-0.1-0.2v-7.8c0-0.1,0-0.2,0.1-0.2c0.1-0.1,0.1-0.1,0.2-0.1
			h1.9c0.2,0,0.3,0,0.3,0.1c0.1,0.1,0.1,0.1,0.1,0.2l2,3.3v-3.3c0-0.1,0-0.2,0.1-0.2c0.1-0.1,0.1-0.1,0.2-0.1h2.2
			c0.1,0,0.2,0,0.2,0.1c0.1,0.1,0.1,0.1,0.1,0.2v7.8c0,0.1,0,0.2-0.1,0.2c-0.1,0.1-0.1,0.1-0.2,0.1h-1.9c-0.2,0-0.3,0-0.3-0.1
			C13,38.7,13,38.6,13,38.6l-2-3.1v3c0,0.1,0,0.2-0.1,0.2c-0.1,0.1-0.1,0.1-0.2,0.1H8.4z"/>
		<path class="st0" d="M17.3,38.9c-0.1,0-0.2,0-0.2-0.1C17,38.7,17,38.6,17,38.6v-7.8c0-0.1,0-0.2,0.1-0.2c0.1-0.1,0.1-0.1,0.2-0.1
			h6.2c0.1,0,0.2,0,0.2,0.1c0.1,0.1,0.1,0.1,0.1,0.2v1.7c0,0.1,0,0.2-0.1,0.2c-0.1,0.1-0.1,0.1-0.2,0.1h-3.6v0.8h3.3
			c0.1,0,0.2,0,0.2,0.1c0.1,0.1,0.1,0.1,0.1,0.2v1.6c0,0.1,0,0.2-0.1,0.2c-0.1,0.1-0.1,0.1-0.2,0.1h-3.3v0.8h3.7
			c0.1,0,0.2,0,0.2,0.1c0.1,0.1,0.1,0.1,0.1,0.2v1.7c0,0.1,0,0.2-0.1,0.2c-0.1,0.1-0.1,0.1-0.2,0.1H17.3z"/>
		<path class="st0" d="M25.3,38.9c-0.1,0-0.2,0-0.2-0.1S25,38.7,25,38.6v-7.8c0-0.1,0-0.2,0.1-0.2c0.1-0.1,0.1-0.1,0.2-0.1h2.4
			c0.1,0,0.2,0,0.2,0.1c0.1,0.1,0.1,0.1,0.1,0.2v2.5h1.9v-2.5c0-0.1,0-0.2,0.1-0.2c0.1-0.1,0.1-0.1,0.2-0.1h2.4c0.1,0,0.2,0,0.2,0.1
			c0.1,0.1,0.1,0.1,0.1,0.2v7.8c0,0.1,0,0.2-0.1,0.2c-0.1,0.1-0.1,0.1-0.2,0.1h-2.4c-0.1,0-0.2,0-0.2-0.1c-0.1-0.1-0.1-0.1-0.1-0.2
			V36H28v2.6c0,0.1,0,0.2-0.1,0.2c-0.1,0.1-0.1,0.1-0.2,0.1H25.3z"/>
		<path class="st0" d="M33.9,38.9c-0.1,0-0.1,0-0.2-0.1c-0.1-0.1-0.1-0.1-0.1-0.2c0,0,0-0.1,0-0.1l2.7-7.7c0-0.1,0.1-0.2,0.2-0.3
			c0.1-0.1,0.2-0.1,0.4-0.1h2.6c0.2,0,0.3,0,0.4,0.1c0.1,0.1,0.1,0.2,0.2,0.3l2.7,7.7c0,0,0,0.1,0,0.1c0,0.1,0,0.1-0.1,0.2
			c-0.1,0.1-0.1,0.1-0.2,0.1h-2.2c-0.2,0-0.3,0-0.3-0.1c-0.1-0.1-0.1-0.1-0.1-0.2l-0.3-0.8h-2.6l-0.3,0.8c0,0.1-0.1,0.1-0.1,0.2
			c-0.1,0.1-0.2,0.1-0.3,0.1H33.9z M37.5,35.4h1.4l-0.7-2.2L37.5,35.4z"/>
		<path class="st0" d="M45.5,38.9c-0.1,0-0.2,0-0.2-0.1c-0.1-0.1-0.1-0.1-0.1-0.2v-5.5h-2c-0.1,0-0.2,0-0.2-0.1
			c-0.1-0.1-0.1-0.1-0.1-0.2v-1.9c0-0.1,0-0.2,0.1-0.2c0.1-0.1,0.1-0.1,0.2-0.1h7c0.1,0,0.2,0,0.2,0.1c0.1,0.1,0.1,0.1,0.1,0.2v1.9
			c0,0.1,0,0.2-0.1,0.2c-0.1,0.1-0.1,0.1-0.2,0.1h-2v5.5c0,0.1,0,0.2-0.1,0.2c-0.1,0.1-0.1,0.1-0.2,0.1H45.5z"/>
		<path class="st0" d="M55.2,39c-0.8,0-1.4-0.1-2-0.3s-1-0.6-1.4-1.1c-0.3-0.5-0.5-1.1-0.5-1.9v-4.9c0-0.1,0-0.2,0.1-0.2
			c0.1-0.1,0.1-0.1,0.2-0.1H54c0.1,0,0.2,0,0.2,0.1c0.1,0.1,0.1,0.1,0.1,0.2v4.9c0,0.3,0.1,0.5,0.2,0.7c0.1,0.2,0.4,0.2,0.7,0.2
			s0.5-0.1,0.7-0.2c0.1-0.2,0.2-0.4,0.2-0.7v-4.9c0-0.1,0-0.2,0.1-0.2c0.1-0.1,0.1-0.1,0.2-0.1h2.4c0.1,0,0.2,0,0.2,0.1
			c0.1,0.1,0.1,0.1,0.1,0.2v4.9c0,0.8-0.2,1.4-0.5,1.9c-0.3,0.5-0.8,0.8-1.4,1.1S56,39,55.2,39z"/>
	</g>
</g>
<g>
	<polygon class="st1" points="16.1,11.1 19.5,10.2 18,13.4 	"/>
</g>
<g>
	<polygon class="st1" points="19.5,17.6 22.9,17.2 21.1,20.1 	"/>
</g>
<g>
	<polygon class="st1" points="11.8,18.7 10.6,15.2 14,16.6 	"/>
</g>
<polyline class="st2" points="31.8,22.7 60.5,22.7 62.6,17.3 51.5,6 32.6,2.4 13.6,6 2.6,17.3 4.6,22.7 32.6,22.7 "/>
<line class="st2" x1="5.3" y1="42.6" x2="60" y2="42.6"/>
<line class="st2" x1="5.3" y1="26.4" x2="60" y2="26.4"/>
<line class="st2" x1="5.3" y1="46" x2="60" y2="46"/>
<polygon class="st2" points="60,56.8 5.1,56.8 2.6,53.2 2.6,53.2 5.1,49.5 60,49.5 62.6,53.2 "/>
</svg>
