<?xml version="1.0" encoding="utf-8"?>
<!-- Generator: Adobe Illustrator 25.1.0, SVG Export Plug-In . SVG Version: 6.00 Build 0)  -->
<svg version="1.1" id="Layer_1" xmlns="http://www.w3.org/2000/svg" xmlns:xlink="http://www.w3.org/1999/xlink" x="0px" y="0px"
	 viewBox="0 0 74.2 123.1" style="enable-background:new 0 0 74.2 123.1;" xml:space="preserve">
<style type="text/css">
	.st0{fill:none;stroke:#000000;stroke-miterlimit:10;}
</style>
<polygon class="st0" points="61.2,112.9 10.6,112.9 6.1,106.7 6.1,106.7 10.6,100.5 61.2,100.5 65.6,106.7 65.6,106.7 "/>
<g>
	<g>
		<polygon points="23.5,23.2 26.9,22.3 25.4,25.5 		"/>
	</g>
	<g>
		<polygon points="32.5,28.8 35.9,28.4 34.1,31.3 		"/>
	</g>
	<g>
		<polygon points="41.4,25 43.4,21.2 44.4,25.4 		"/>
	</g>
	<g>
		<polygon points="51,30.1 54.4,29.2 52.9,32.4 		"/>
	</g>
	<g>
		<polygon points="17.5,33.5 16.3,30 19.7,31.4 		"/>
	</g>
	<polyline class="st0" points="35.8,39.3 64.5,39.3 66.6,31.3 55.5,14.8 36.6,9.5 17.6,14.8 6.6,31.3 8.6,39.3 36.6,39.3 	"/>
</g>
<polyline class="st0" points="12.3,59.2 12.3,43 30.5,59.2 30.5,43 "/>
<polyline class="st0" points="57.9,50.5 42.9,50.5 42.9,43 42.9,50.5 42.9,59.2 60.8,59.2 "/>
<polyline class="st0" points="12.3,62.3 12.3,69.3 12.3,77.8 "/>
<polyline class="st0" points="12.3,69.3 30.5,69.3 30.5,62.3 "/>
<line class="st0" x1="30.5" y1="69.3" x2="30.5" y2="77.8"/>
<polyline class="st0" points="39.2,77.8 43.6,71.7 50.4,62.3 60.8,77.8 "/>
<line class="st0" x1="43.6" y1="71.7" x2="56.7" y2="71.7"/>
<polyline class="st0" points="12.3,81.8 21.4,81.8 30.5,81.8 "/>
<line class="st0" x1="21.4" y1="81.8" x2="21.4" y2="97.2"/>
<polyline class="st0" points="40.8,81.2 40.8,93.7 49.5,97.2 59.8,93.7 59.8,81.2 "/>
<line class="st0" x1="60.8" y1="43" x2="42.9" y2="43"/>
<rect x="42.4" y="42.5" width="1" height="1"/>
</svg>
