<?xml version="1.0" encoding="utf-8"?>
<!-- Generator: Adobe Illustrator 25.1.0, SVG Export Plug-In . SVG Version: 6.00 Build 0)  -->
<svg version="1.1" id="Capa_1" xmlns="http://www.w3.org/2000/svg" xmlns:xlink="http://www.w3.org/1999/xlink" x="0px" y="0px"
	 viewBox="0 0 257 606" style="enable-background:new 0 0 257 606;" xml:space="preserve">
<style type="text/css">
	.st0{fill:#F5390F;}
	.st1{fill:#019A5A;}
	.st2{fill:#CE0102;}
	.st3{fill:#9ED63C;}
	.st4{fill:#56C125;}
</style>
<g>
	<path class="st0" d="M177.1,148.6c-2.7-4.4-7.5-7.1-12.6-7.2c-5.2-0.1-10,2.6-12.8,6.9l-5.5,8.5c-3.7,5.8-9,10.6-15.1,13.7
		c-6.6,3.4-14.1,4.8-21.5,4c-5.8-0.6-11.5,2.3-14.4,7.3c-7.4,12.7-21.2,20-35.9,19.1l-10.1-0.6c-5.2-0.3-10.1,2-13.1,6.3
		c-3,4.2-3.6,9.7-1.7,14.4c0.8,1.9,1.6,3.7,2.6,5.6c50.7,99.9,56.5,186.1,52.4,240.9c-4.4,59.4-21.1,95.7-21.3,96
		c-2.7,5.8-1.5,12.7,3.1,17.2c4.6,4.5,11.5,5.5,17.2,2.6c56.3-28.6,96.2-69.4,118.5-121.2c17.7-41.2,24.3-89.1,19.5-142.4
		c-8-89.4-44.8-162.6-46.3-165.7C179.2,152.1,178.2,150.3,177.1,148.6L177.1,148.6z"/>
	<path class="st1" d="M85.8,145.5c-7.4,3.8-16.4,0.8-20.2-6.6c-19.3-38-16.3-83.5,7.8-118.7l1.5-2.2c4.7-6.8,14-8.6,20.9-3.9
		c6.8,4.7,8.6,14,3.9,20.9l-1.5,2.2c-17.9,26.1-20.2,59.9-5.8,88.1C96.1,132.7,93.2,141.8,85.8,145.5z"/>
	<path class="st2" d="M164.5,141.4c-5.2-0.1-10,2.6-12.8,6.9l-5.5,8.5c-3.7,5.8-9,10.6-15.1,13.7c-6.6,3.4-14.1,4.8-21.5,4
		c-2.9-0.3-5.8,0.3-8.3,1.6L222,413.8c6-29,7.5-60.5,4.4-94.1c-8-89.4-44.8-162.6-46.3-165.7c-1-1.9-2-3.7-3-5.4
		C174.4,144.2,169.7,141.5,164.5,141.4L164.5,141.4z"/>
	<path class="st3" d="M177.1,148.6c-9.9-16.4-25.4-28.6-43.7-34.6c-20.4-6.7-42.1-5-61.3,4.7s-33.3,26.3-40,46.7
		c-6,18.2-5.2,38,2.1,55.7c2.2,5.3,7.2,8.9,12.9,9.2l10.1,0.6c12.6,0.8,24.7-1.8,35.4-7.3c8.8-4.5,16.7-10.9,23-18.9
		c10-0.3,19.8-2.9,28.8-7.4c10.9-5.5,20.2-13.9,26.8-24.2l5.5-8.5C180,159.7,180.1,153.5,177.1,148.6L177.1,148.6z"/>
	<path class="st4" d="M115.9,204.7c10-0.3,19.8-2.9,28.8-7.4c10.9-5.5,20.2-13.9,26.8-24.2l5.5-8.5c3.1-4.8,3.2-11,0.2-15.9
		c-9.9-16.4-25.4-28.6-43.7-34.6c-20.4-6.7-42.1-5-61.3,4.7L115.9,204.7C115.9,204.7,115.9,204.7,115.9,204.7L115.9,204.7z"/>
</g>
</svg>
