<?xml version="1.0" encoding="utf-8"?>
<!-- Generator: Adobe Illustrator 25.1.0, SVG Export Plug-In . SVG Version: 6.00 Build 0)  -->
<svg version="1.1" id="Layer_1" xmlns="http://www.w3.org/2000/svg" xmlns:xlink="http://www.w3.org/1999/xlink" x="0px" y="0px"
	 viewBox="0 0 512 512" style="enable-background:new 0 0 512 512;" xml:space="preserve">
<style type="text/css">
	.st0{fill:#25844E;}
	.st1{fill:#439E6A;}
	.st2{fill:#1A7C44;}
	.st3{fill:#17773E;}
</style>
<path class="st0" d="M256,512c-68.4,0-132.7-26.6-181-75C26.6,388.7,0,324.4,0,256S26.6,123.3,75,75C123.3,26.6,187.6,0,256,0
	s132.7,26.6,181,75s75,112.6,75,181s-26.6,132.7-75,181S324.4,512,256,512L256,512z M256,15c-64.4,0-124.9,25.1-170.4,70.6
	S15,191.6,15,256s25.1,124.9,70.6,170.4S191.6,497,256,497s124.9-25.1,170.4-70.6S497,320.4,497,256s-25.1-124.9-70.6-170.4
	S320.4,15,256,15z"/>
<g>
	<g>
		<path class="st1" d="M95,285.7c0,0,15.4-23.1,50.3-35c33.1-11.3,76.1-3.7,86.8,31.5c9.8,32.3-17,65.2-51,61.2
			C135.3,338,135.1,291.3,95,285.7"/>
	</g>
</g>
<g>
	<g>
		<path class="st1" d="M403.5,129.5c-30.4-11.5-70.8-17.8-107.3-7c-59.1,17.4-84.2,79.3-62.7,114.2c22,35.7,73.1,43,102.9,8
			C366.9,209.1,349.1,168.4,403.5,129.5"/>
	</g>
</g>
<path class="st2" d="M317.1,118.2c16.7,1.9,32.6,6.1,46.4,11.3c-54.4,38.9-36.6,79.6-67,115.2c-8.2,9.6-17.9,16-28.3,19.5
	c22.9,7.6,49.7,2.3,68.3-19.5c30.4-35.7,12.6-76.4,67-115.2C378.8,120.2,347.5,114.3,317.1,118.2z"/>
<path class="st3" d="M251.2,369.1v45.6c0,4.1,3.2,7.7,7.3,7.8c4.2,0.1,7.7-3.3,7.7-7.5V272.8c0-63.6,31.6-80.7,33.1-81.5
	c3.7-1.8,5.2-6.3,3.4-10c-1.8-3.7-6.3-5.2-10-3.4c-1.7,0.8-41.4,21.2-41.4,94.9v60.9c-17.9-27.8-48.2-50.2-77.6-55
	c-4.1-0.7-7.9,2.1-8.6,6.2c-0.7,4.1,2.1,7.9,6.2,8.6c32.6,5.3,67.9,37.6,78.2,71.1c0.4,1.4,0.9,2.8,1.6,4.2L251.2,369.1z"/>
</svg>
