<?xml version="1.0" encoding="utf-8"?>
<!-- Generator: Adobe Illustrator 25.1.0, SVG Export Plug-In . SVG Version: 6.00 Build 0)  -->
<svg version="1.1" id="Layer_1" xmlns="http://www.w3.org/2000/svg" xmlns:xlink="http://www.w3.org/1999/xlink" x="0px" y="0px"
	 viewBox="0 0 30 30" style="enable-background:new 0 0 30 30;" xml:space="preserve">
<style type="text/css">
	.st0{fill:#9EE8C0;}
	.st1{fill:#8ADEB0;}
</style>
<g>
	<g>
		<g>
			<g>
				<g>
					<path class="st0" d="M20.6,7.4c0,0-1.9,0.6-3.1,1.7c-1.8,1.7-2.5,4.7-0.5,6.2c1.7,1.3,3.9,0.3,4.7-1.7
						C22.7,10.7,20.6,7.4,20.6,7.4"/>
				</g>
			</g>
			<path class="st1" d="M20.6,7.4c0,0-0.9,0.3-1.9,0.8c0.5,1.2,1.3,3.4,0.6,5.3c-0.4,1-1,1.7-1.8,2c1.6,0.8,3.5-0.2,4.2-2
				C22.7,10.7,20.6,7.4,20.6,7.4L20.6,7.4z"/>
		</g>
	</g>
	<g>
		<path d="M25.6,4.4C22.8,1.6,19,0,15,0S7.2,1.6,4.4,4.4C1.6,7.2,0,11,0,15c0,1.7,0.3,3.4,0.8,5c0.2,0.5,1,0.2,0.8-0.3
			c-0.5-1.5-0.8-3.1-0.8-4.7c0-3.8,1.5-7.3,4.1-10c2.7-2.7,6.2-4.1,10-4.1S22.3,2.3,25,5c2.7,2.7,4.1,6.2,4.1,10s-1.5,7.3-4.1,10
			c-2.7,2.7-6.2,4.1-10,4.1c-5.2,0-9.9-2.8-12.4-7.4c-0.3-0.5-1-0.1-0.8,0.4C4.4,27,9.5,30,15,30c4,0,7.8-1.6,10.6-4.4
			C28.4,22.8,30,19,30,15S28.4,7.2,25.6,4.4L25.6,4.4z"/>
		<path d="M9.8,8c-0.2-0.5-1-0.3-0.8,0.3l5.4,15.6c0.1,0.4,0.7,0.4,0.8,0l2.7-7.8c0.8,0.2,1.7,0.1,2.4-0.3c0.5-0.3,0.1-1-0.4-0.8
			c-0.5,0.3-1.1,0.4-1.7,0.2l1.4-4.1c0.2-0.5-0.6-0.8-0.8-0.3l-1.4,4c-0.7-0.5-1.1-1.2-1.1-2c0-0.8,0.2-1.7,0.7-2.5
			C17.4,9.6,18.1,9,19,8.5c0.5-0.2,0.9-0.5,1.4-0.6c0.4,0.7,0.7,1.5,0.9,2.3c0.3,1.1,0.3,2.1,0,3c-0.2,0.5,0.7,0.8,0.8,0.3
			c0.3-1,0.3-2.2,0-3.4c-0.2-1-0.6-2-1.2-2.9c-0.1-0.2-0.3-0.3-0.5-0.2c-0.6,0.2-1.2,0.5-1.8,0.8c-1.1,0.6-1.9,1.3-2.4,2.2
			c-0.6,1-0.9,2-0.8,3c0.1,1.2,0.7,2.2,1.7,2.8l-2.3,6.6L9.8,8z"/>
	</g>
</g>
</svg>
