<?xml version="1.0" encoding="utf-8"?>
<!-- Generator: Adobe Illustrator 25.1.0, SVG Export Plug-In . SVG Version: 6.00 Build 0)  -->
<svg version="1.1" id="Layer_1" xmlns="http://www.w3.org/2000/svg" xmlns:xlink="http://www.w3.org/1999/xlink" x="0px" y="0px"
	 viewBox="0 0 30 30" style="enable-background:new 0 0 30 30;" xml:space="preserve">
<style type="text/css">
	.st0{fill:#FFEE8A;}
	.st1{fill:#FFE64F;}
</style>
<g>
	<g>
		<g>
			<g>
				<path class="st0" d="M18.8,15.4c-1.3,1.3-3.7,1-3.7,1s-0.3-2.4,1-3.7s3.7-1,3.7-1S20.1,14.1,18.8,15.4z"/>
				<path class="st1" d="M19.7,11.6c0,0-1.2-0.2-2.3,0.2c0,0.6,0.1,2.5-1,3.6C16,15.8,15.5,16,15,16.2c0,0.1,0,0.2,0,0.2
					s2.4,0.3,3.7-1C20.1,14.1,19.7,11.6,19.7,11.6L19.7,11.6z"/>
				<g>
					<path class="st0" d="M17,7.8c0,1.8-2,3.3-2,3.3s-2-1.5-2-3.3s2-3.3,2-3.3S17,5.9,17,7.8z"/>
					<path class="st0" d="M11.2,15.4c1.3,1.3,3.7,1,3.7,1s0.3-2.4-1-3.7s-3.7-1-3.7-1S9.9,14.1,11.2,15.4z"/>
					<path class="st0" d="M18.8,21.4c-1.3,1.3-3.7,1-3.7,1s-0.3-2.4,1-3.7c1.3-1.3,3.7-1,3.7-1S20.1,20.1,18.8,21.4z"/>
				</g>
				<path class="st1" d="M19.7,17.7c0,0-1.2-0.2-2.3,0.2c0,0.6,0.1,2.5-1,3.6C16,21.8,15.5,22,15,22.2c0,0.1,0,0.2,0,0.2
					s2.4,0.3,3.7-1C20.1,20.1,19.7,17.7,19.7,17.7L19.7,17.7z"/>
				<path class="st0" d="M11.2,21.4c1.3,1.3,3.7,1,3.7,1s0.3-2.4-1-3.7c-1.3-1.3-3.7-1-3.7-1S9.9,20.1,11.2,21.4z"/>
			</g>
		</g>
	</g>
	<path d="M25.6,4.4C22.8,1.6,19,0,15,0C11.2,0,7.6,1.4,4.8,4C4.4,4.4,5,5,5.4,4.6c2.6-2.4,6-3.7,9.6-3.7c3.6,0,7,1.4,9.7,3.8
		l-6.5,6.5c-1,0.1-2.1,0.5-2.7,1.3v-1.3c0.5-0.4,2-1.8,2-3.5c0-2-2-3.6-2.1-3.7c-0.2-0.1-0.4-0.1-0.5,0c-0.1,0.1-2.1,1.6-2.1,3.7
		c0,1.7,1.4,3.1,2,3.5v1.3c-1-1.2-2.8-1.6-4.3-1.4c-0.2,0-0.3,0.2-0.4,0.4c0,0.1-0.4,2.7,1.1,4.1c0.5,0.5,1.1,0.8,1.8,1l-0.6,0.6
		c-0.6-0.1-1.3-0.1-1.9,0c-0.2,0-0.3,0.2-0.4,0.4c0,0.1-0.1,0.9,0,1.9c0,0-0.1,0-0.1,0.1l-5.1,5.1c-2.5-2.6-3.8-6-3.8-9.7
		c0-3.2,1-6.2,3-8.7c0.4-0.4-0.3-1-0.7-0.5C1.1,8.4,0,11.6,0,15c0,4,1.6,7.8,4.4,10.6C7.2,28.4,11,30,15,30s7.8-1.6,10.6-4.4
		C28.4,22.8,30,19,30,15S28.4,7.2,25.6,4.4L25.6,4.4z M16.3,12.9c0.9-0.9,2.3-0.9,3-0.9c0,0.2,0,0.6,0,0.9c-0.1,0.6-0.3,1.5-0.8,2.1
		c-0.6,0.6-1.7,0.8-2.4,0.9l1.4-1.4c0.2-0.2,0.2-0.4,0-0.6c-0.2-0.2-0.4-0.2-0.6,0l-1.4,1.4C15.5,14.5,15.7,13.5,16.3,12.9
		L16.3,12.9z M13.5,7.8c0-1.2,1-2.3,1.5-2.7c0.5,0.5,1.5,1.5,1.5,2.7c0,0.9-0.6,1.7-1.1,2.3V7.8c0-0.2-0.2-0.4-0.4-0.4
		s-0.4,0.2-0.4,0.4v2.3C14.1,9.5,13.5,8.7,13.5,7.8z M10.7,12.1c0.7,0,2.2,0,3,0.9c0.6,0.6,0.8,1.6,0.9,2.4l-1.4-1.4
		c-0.2-0.2-0.5-0.2-0.6,0c-0.2,0.2-0.2,0.5,0,0.6l1.4,1.4c-0.1,0-0.2,0-0.3,0c-0.6-0.1-1.5-0.3-2.1-0.8
		C10.7,14.2,10.7,12.7,10.7,12.1L10.7,12.1z M13.8,16.8c0.2,0,0.5,0,0.7,0v1.8c-0.4-0.5-0.9-0.8-1.5-1.1L13.8,16.8z M10.7,18.1
		c0.7,0,2.2,0,3,0.9c0.6,0.6,0.8,1.7,0.9,2.4l-1.4-1.4c-0.4-0.4-1,0.2-0.6,0.6l1.4,1.4c-0.8,0-1.8-0.2-2.4-0.9
		C10.7,20.2,10.7,18.7,10.7,18.1L10.7,18.1z M25,25c-2.7,2.7-6.2,4.1-10,4.1c-3.6,0-7-1.4-9.7-3.8l4.8-4.8c0.7,1.8,2.6,2.4,4.4,2.3
		v2.7c0,0.2,0.2,0.4,0.4,0.4s0.4-0.2,0.4-0.4v-2.7c1.4,0.1,3-0.3,3.9-1.4c0.3-0.5-0.4-1-0.7-0.5c-0.6,0.8-1.6,1-2.6,1.1l1.4-1.4
		c0.4-0.4-0.2-1-0.6-0.6l-1.4,1.4c0-0.1,0-0.2,0-0.3c0.1-0.6,0.3-1.5,0.8-2.1c0.9-0.9,2.3-0.9,3-0.9c0,0.2,0,0.5,0,0.8
		c0,0.6,0.8,0.6,0.9,0.1c0.1-0.7,0-1.3,0-1.3c0-0.2-0.2-0.3-0.4-0.4c-1.5-0.2-3.4,0.1-4.3,1.4v-1.8c1.3,0.1,2.7-0.2,3.6-1.1
		c1.4-1.4,1.1-4,1.1-4.1c0-0.4-0.4-0.4-0.7-0.4l5.8-5.8c2.5,2.6,3.8,6,3.8,9.7C29.1,18.8,27.7,22.3,25,25L25,25z"/>
</g>
</svg>
