<?xml version="1.0" encoding="utf-8"?>
<!-- Generator: Adobe Illustrator 25.1.0, SVG Export Plug-In . SVG Version: 6.00 Build 0)  -->
<svg version="1.1" id="Layer_1" xmlns="http://www.w3.org/2000/svg" xmlns:xlink="http://www.w3.org/1999/xlink" x="0px" y="0px"
	 viewBox="0 0 16.5 32.8" style="enable-background:new 0 0 16.5 32.8;" xml:space="preserve">
<style type="text/css">
	.st0{fill:#F02D3A;}
	.st1{fill:#55B56A;}
</style>
<g id="Filled_outline">
	<path class="st0" d="M12.2,27.4c-1.7-1.8-2.7-4.1-3-6.5c-0.4-2.5-0.2-5.1,0.5-7.5c0,0,0.4-1.5,0.5-2C10.4,9.2,8,7.4,5.7,8
		c-1.5,0.4-2.5,1.8-2.5,3.4c0,5.4,0.5,10,0.5,10c0.2,1.8,1.2,4.2,2.5,5.5c2.1,2,4.7,3.4,7.5,4C13.6,29.6,13.1,28.3,12.2,27.4z"/>
	<path class="st1" d="M13.2,1.9h-1.5c-3,0-5.5,2.5-5.5,5.5v0.5c0,0-0.3,0.1-0.5,0.1c-1.1,0.3-2,1.2-2.3,2.3l2.3-0.5l1,1.5l1.5-1
		l1.7,2.2c0.1-0.4,0.2-0.8,0.3-1.2c0.1-1.4-0.7-2.7-2-3.2V7.4c0-1.9,1.6-3.5,3.5-3.5h1.5c0.6,0,1-0.5,1-1S13.7,1.9,13.2,1.9z"/>
	<path d="M6.2,22.9h1v1h-1V22.9z"/>
	<path d="M3.2,21.5c0.2,1.8,1.2,4.4,2.6,5.8c1.1,1.1,2.3,2,3.6,2.6c1.3,0.7,2.7,1.2,4.2,1.5c0,0,0.1,0,0.1,0c0.3,0,0.5-0.2,0.5-0.5
		c0-1.5-0.6-2.8-1.6-3.9c-1.6-1.7-2.6-3.9-2.9-6.2c-0.1-0.9-0.2-1.7-0.2-2.6c0-1.6,0.2-3.2,0.7-4.7c0-0.2,0.4-1.5,0.5-2.1
		c0.1-1.5-0.7-2.9-2-3.6V7.4c0-1.7,1.3-3,3-3h1.5c0.8,0,1.5-0.7,1.5-1.5S14,1.4,13.2,1.4h-1.5c-3.3,0-6,2.7-6,6v0.1c0,0-0.1,0-0.1,0
		C3.8,8,2.7,9.6,2.7,11.4C2.7,16.7,3.2,21.4,3.2,21.5L3.2,21.5z M5.8,8.5c0.1,0,0.3-0.1,0.4-0.1c0.3,0,0.4-0.2,0.4-0.5V7.4
		c0-2.8,2.2-5,5-5h1.5c0.3,0,0.5,0.2,0.5,0.5s-0.2,0.5-0.5,0.5h-1.5c-2.2,0-4,1.8-4,4v0.8c0,0.2,0.1,0.4,0.3,0.5
		c1.1,0.4,1.8,1.5,1.7,2.7c0,0,0,0.1,0,0.1l-1.1-1.4C8.4,9.9,8.1,9.8,7.9,10l-1.1,0.7L6.1,9.6C6,9.4,5.8,9.4,5.6,9.4L4.2,9.7
		C4.6,9.1,5.1,8.7,5.8,8.5L5.8,8.5z M3.7,10.8l1.7-0.3l0.8,1.2c0.2,0.2,0.5,0.3,0.7,0.1l0,0l1.1-0.7l1.3,1.6
		c-0.1,0.2-0.1,0.5-0.2,0.6c-0.5,1.6-0.7,3.3-0.7,5c0,0.9,0.1,1.8,0.2,2.7c0.3,2.5,1.4,4.9,3.1,6.8c0.7,0.7,1.1,1.5,1.3,2.5
		c-1.1-0.3-2.2-0.7-3.3-1.2c-1.2-0.6-2.3-1.5-3.3-2.5c-1.3-1.5-2.1-3.3-2.4-5.2c0,0-0.5-4.7-0.5-9.9C3.7,11.2,3.7,11,3.7,10.8
		L3.7,10.8z"/>
	<path d="M5.2,20.4h1v1h-1V20.4z"/>
</g>
</svg>
