<?xml version="1.0" encoding="utf-8"?>
<!-- Generator: Adobe Illustrator 25.1.0, SVG Export Plug-In . SVG Version: 6.00 Build 0)  -->
<svg version="1.1" id="Layer_1" xmlns="http://www.w3.org/2000/svg" xmlns:xlink="http://www.w3.org/1999/xlink" x="0px" y="0px"
	 viewBox="0 0 30 30" style="enable-background:new 0 0 30 30;" xml:space="preserve">
<style type="text/css">
	.st0{fill:#9EE8C0;}
	.st1{fill:#8ADEB0;}
</style>
<g>
	<g>
		<g>
			<g>
				<g>
					<g>
						<g>
							<path class="st0" d="M5.6,16.7c0,0,0.9-1.4,2.9-2c1.9-0.7,4.5-0.2,5.1,1.8c0.6,1.9-1,3.8-3,3.6C7.9,19.8,7.9,17.1,5.6,16.7"
								/>
						</g>
					</g>
					<g>
						<g>
							<g>
								<path class="st0" d="M23.6,7.6c-1.8-0.7-4.1-1-6.3-0.4c-3.5,1-4.9,4.6-3.7,6.7c1.3,2.1,4.3,2.5,6,0.5
									C21.5,12.3,20.5,9.9,23.6,7.6"/>
							</g>
						</g>
						<path class="st1" d="M18.6,6.9c1,0.1,1.9,0.4,2.7,0.7c-3.2,2.3-2.1,4.7-3.9,6.8c-0.5,0.6-1.1,0.9-1.7,1.1
							c1.3,0.4,2.9,0.1,4-1.1c1.8-2.1,0.7-4.5,3.9-6.8C22.2,7,20.4,6.7,18.6,6.9z"/>
					</g>
				</g>
			</g>
		</g>
	</g>
	<g>
		<path d="M25.6,4.4C22.8,1.6,19,0,15,0S7.2,1.6,4.4,4.4C1.6,7.2,0,11,0,15c0,2.5,0.7,5.1,1.9,7.3c0.1,0.2,0.4,0.3,0.6,0.2
			c0.2-0.1,0.3-0.4,0.2-0.6c-1.2-2.1-1.8-4.5-1.8-6.9c0-3.8,1.5-7.3,4.1-10s6.2-4.1,10-4.1c3.8,0,7.3,1.5,10,4.1
			c2.7,2.7,4.1,6.2,4.1,10s-1.5,7.3-4.1,10c-2.7,2.7-6.2,4.1-10,4.1c-4.4,0-8.4-2-11.1-5.4c-0.2-0.2-0.4-0.2-0.6-0.1
			c-0.2,0.2-0.2,0.4-0.1,0.6C6.1,27.9,10.4,30,15,30c4,0,7.8-1.6,10.6-4.4C28.4,22.8,30,19,30,15S28.4,7.2,25.6,4.4L25.6,4.4z"/>
		<path d="M23.8,7.2c-2.2-0.8-4.5-1-6.4-0.5c-1.7,0.5-3.1,1.6-3.9,3c-0.8,1.4-0.9,2.9-0.3,4.1c0.3,0.7,0.9,1.3,1.6,1.7
			c0,0.2,0,0.3,0,0.5v3.6c-0.2-0.4-0.5-0.7-0.8-1c0.3-0.7,0.3-1.4,0.1-2.1c-0.3-0.9-0.8-1.5-1.7-2c-1.1-0.6-2.6-0.6-4-0.2
			c-2.2,0.7-3.1,2.2-3.2,2.2c-0.1,0.1-0.1,0.3,0,0.4c0.1,0.1,0.2,0.2,0.3,0.3c1,0.1,1.5,0.7,2,1.4c0.7,0.8,1.4,1.7,3,1.9
			c0.1,0,0.3,0,0.4,0c0.9,0,1.8-0.4,2.5-1.2c0,0,0-0.1,0.1-0.1c0.6,0.7,1,1.4,1.2,2.2c0,0.1,0,0.1,0.1,0.1v2.7
			c0,0.2,0.2,0.4,0.4,0.4c0.2,0,0.4-0.2,0.4-0.4V16c0,0,0-0.1,0-0.1c0.4,0.1,0.9,0.2,1.3,0.2c0.1,0,0.2,0,0.4,0
			c1.7-0.1,3.1-1.3,3.8-3.2c0.1-0.2,0.1-0.3,0.2-0.5c0.1-0.2-0.1-0.5-0.3-0.6c-0.2-0.1-0.5,0.1-0.6,0.3c-0.1,0.2-0.1,0.3-0.2,0.5
			c-0.6,1.5-1.7,2.5-3,2.6c-0.5,0-1.1,0-1.5-0.2c0.3-2.9,1.8-3.7,1.9-3.8c0.2-0.1,0.3-0.4,0.2-0.6c-0.1-0.2-0.4-0.3-0.6-0.2
			c-0.1,0-1.9,1-2.3,4.1c-0.4-0.3-0.7-0.7-0.9-1.1c-0.4-0.9-0.3-2.1,0.3-3.3c0.7-1.2,1.9-2.2,3.4-2.6c1.6-0.4,3.4-0.4,5.1,0.2
			c-0.6,0.5-1.1,1.1-1.4,1.8c-0.1,0.2,0,0.5,0.2,0.6c0.1,0,0.1,0.1,0.2,0.1c0.2,0,0.3-0.1,0.4-0.2c0.4-0.7,1-1.4,1.8-2
			c0.2-0.1,0.2-0.3,0.2-0.5C24,7.3,23.8,7.2,23.8,7.2L23.8,7.2z M10.7,19.7c-1.2-0.1-1.8-0.9-2.4-1.6c-0.5-0.6-1-1.2-1.9-1.6
			c0.4-0.4,1.2-1,2.3-1.4c1.1-0.4,2.4-0.3,3.3,0.1c0.6,0.3,1,0.8,1.2,1.4c0.1,0.4,0.1,0.8,0,1.2c-0.9-0.8-2-1.3-3.1-1.5
			c-0.2,0-0.5,0.1-0.5,0.4c0,0.2,0.1,0.5,0.4,0.5c1,0.2,2,0.7,2.8,1.5c0,0.1-0.1,0.1-0.1,0.2C12.2,19.5,11.5,19.8,10.7,19.7
			L10.7,19.7z"/>
	</g>
</g>
</svg>
